[img]http://i.imgur.com/IqTOmYh.jpg[/img]


[code]

Ganster.Squad.2013.R6.WEBRip.XViD-26k
 
http://www.imdb.com/title/tt1321870/

Plot:

Los Angeles, 1949: A secret crew of police officers led by two determined sergeants work together in an 
effort to take down the ruthless mob king Mickey Cohen who runs the city.

Sources - VIDEO: Gangster Squad (2013) 720p HDRip.x264.AAC-TengXun-SmY ..... thanks .... :P
          AUDIO: EchO ..... thanks .... :P          

Format                                   : AVI
Format/Info                              : Audio Video Interleave
File size                                : 1.49 GiB
Duration                                 : 1h 52mn
Overall bit rate                         : 1 889 Kbps
Writing library                          : VirtualDub build 32839/release

Video
ID                                       : 0
Format                                   : MPEG-4 Visual
Format profile                           : Advanced Simple@L5
Format settings, BVOP                    : 2
Format settings, QPel                    : No
Format settings, GMC                     : No warppoints
Format settings, Matrix                  : Default (H.263)
Codec ID                                 : XVID
Codec ID/Hint                            : XviD
Duration                                 : 1h 52mn
Bit rate                                 : 1 750 Kbps
Width                                    : 720 pixels
Height                                   : 304 pixels
Display aspect ratio                     : 2.35:1
Frame rate                               : 29.970 fps
Color space                              : YUV
Chroma subsampling                       : 4:2:0
Bit depth                                : 8 bits
Scan type                                : Progressive
Compression mode                         : Lossy
Bits/(Pixel*Frame)                       : 0.267
Stream size                              : 1.38 GiB (93%)
Writing library                          : XviD 1.2.1 (UTC 2008-12-04)

Audio
ID                                       : 1
Format                                   : MPEG Audio
Format version                           : Version 1
Format profile                           : Layer 3
Mode                                     : Joint stereo
Mode extension                           : MS Stereo
Codec ID                                 : 55
Codec ID/Hint                            : MP3
Duration                                 : 1h 52mn
Bit rate mode                            : Constant
Bit rate                                 : 128 Kbps
Channel(s)                               : 2 channels
Sampling rate                            : 44.1 KHz
Compression mode                         : Lossy
Stream size                              : 103 MiB (7%)
Alignment                                : Split accross interleaves
Interleave, duration                     : 33 ms (1.00 video frame)


Notes -

K.. 1st off the stuttering issue that others have had is pretty much gone.. source had
for sum reason a variable framerate which we fixed by changin framerate to constant 29.97
ther is still a stutter here and there but nothin like the other copies out.. after that
just cleaned up the otherwise very ncie source and then synced EchO's LiNE to it after 
we cleaned it up.. then just a mux and boom.. all done.. enjoy til RETAIL


PS. There are HARDCODED Chinese subs thru out that couldnt crop or blur due to losing way 
to much pic.. so take it or leave it...  


[/code]

Screens:

[img]http://i.imgur.com/Nv4nvwW.png[/img]
[img]http://i.imgur.com/PPpfUjs.png[/img]
[img]http://i.imgur.com/mTckXOt.png[/img]
[img]http://i.imgur.com/cd0QoVW.png[/img]
[img]http://i.imgur.com/5WX9LmR.jpg[/img]
[img]http://imageshack.us/a/img39/161/84774515.png[/img]
[img]http://imageshack.us/a/img7/9731/36194960.png[/img]
[img]http://imageshack.us/a/img248/3008/53321331.png[/img]
[img]http://imageshack.us/a/img9/7551/58106412.png[/img]
[img]http://imageshack.us/a/img515/6033/24550499.png[/img]

Greetz:
SILENT-HD|CM8|RX|VISION|HDSCENE|xTriLL|ADTRG|CRYS|REMIXHD|HS|Tommiecook
BIDA|RX|REFILL|INSPiRAL|AXED|HOPE|Anonymous|GooN|NOIR|Blackjesus|Gabroo Punjab Deh
|BIGKATS|RESiSTANCE|TRiNiTY|LEGION

To all the people who have helped me, you know who you are

Anything to offer email us @: 26k@hushmail.me 